<svg width="19" height="19" viewBox="0 0 19 19" fill="none" xmlns="http://www.w3.org/2000/svg">
<path d="M2.8082 8.3835C2.80082 7.64198 2.94144 6.90644 3.22181 6.21992C3.50218 5.53341 3.91667 4.90973 4.44103 4.38537C4.96539 3.86101 5.58908 3.44651 6.27559 3.16614C6.9621 2.88577 7.69764 2.74516 8.43916 2.75254C9.18068 2.74516 9.91622 2.88577 10.6027 3.16614C11.2892 3.44651 11.9129 3.86101 12.4373 4.38537C12.9616 4.90973 13.3761 5.53341 13.6565 6.21992C13.9369 6.90644 14.0775 7.64198 14.0701 8.3835C14.0775 9.12501 13.9369 9.86056 13.6565 10.5471C13.3761 11.2336 12.9616 11.8573 12.4373 12.3816C11.9129 12.906 11.2892 13.3205 10.6027 13.6009C9.91622 13.8812 9.18068 14.0218 8.43916 14.0145C7.69764 14.0218 6.9621 13.8812 6.27559 13.6009C5.58908 13.3205 4.96539 12.906 4.44103 12.3816C3.91667 11.8573 3.50218 11.2336 3.22181 10.5471C2.94144 9.86056 2.80082 9.12501 2.8082 8.3835V8.3835ZM16.6604 18.1814C16.8702 18.387 17.1526 18.5015 17.4464 18.5C17.7401 18.4985 18.0214 18.3812 18.2291 18.1734C18.4368 17.9657 18.5542 17.6844 18.5557 17.3907C18.5571 17.097 18.4426 16.8145 18.237 16.6047L14.7458 13.1135C15.7807 11.7549 16.3352 10.0913 16.3225 8.3835C16.3289 7.34644 16.1294 6.31843 15.7355 5.35908C15.3416 4.39972 14.7612 3.52812 14.0279 2.79479C13.2945 2.06147 12.4229 1.48104 11.4636 1.08714C10.5042 0.69324 9.47621 0.493721 8.43916 0.500151C7.40211 0.493721 6.3741 0.69324 5.41474 1.08714C4.45539 1.48104 3.58378 2.06147 2.85046 2.79479C2.11714 3.52812 1.5367 4.39972 1.1428 5.35908C0.748904 6.31843 0.549385 7.34644 0.555815 8.3835C0.549385 9.42055 0.748904 10.4486 1.1428 11.4079C1.5367 12.3673 2.11714 13.2389 2.85046 13.9722C3.58378 14.7055 4.45539 15.286 5.41474 15.6799C6.3741 16.0738 7.40211 16.2733 8.43916 16.2668C10.1469 16.2796 11.8106 15.725 13.1692 14.6902L16.6604 18.1814Z" fill="#F5F6EF"/>
</svg>
