<svg width="19" height="19" viewBox="0 0 19 19" fill="none" xmlns="http://www.w3.org/2000/svg">
<path d="M9.88867 0.5C8.10864 0.5 6.36859 1.02784 4.88854 2.01677C3.4085 3.00571 2.25495 4.41131 1.57376 6.05585C0.892571 7.70038 0.714341 9.50998 1.06161 11.2558C1.40888 13.0016 2.26604 14.6053 3.52471 15.864C4.78339 17.1226 6.38703 17.9798 8.13286 18.3271C9.87869 18.6743 11.6883 18.4961 13.3328 17.8149C14.9774 17.1337 16.383 15.9802 17.3719 14.5001C18.3608 13.0201 18.8887 11.28 18.8887 9.5C18.8862 7.11382 17.9371 4.8261 16.2499 3.13882C14.5626 1.45154 12.2748 0.50252 9.88867 0.5ZM17.472 8.80769H14.0252C13.9032 6.34481 13.1365 4.0074 11.8514 2.14423C13.3565 2.54831 14.7018 3.4034 15.7066 4.5946C16.7114 5.78581 17.3274 7.25603 17.472 8.80769ZM9.88867 17.1059C8.26781 15.3517 7.28473 12.8655 7.13935 10.1923H12.638C12.4926 12.8637 11.5095 15.3517 9.88867 17.1059ZM7.13935 8.80769C7.28473 6.13625 8.26435 3.64827 9.88867 1.89413C11.5095 3.64827 12.4926 6.13452 12.638 8.80769H7.13935ZM7.92598 2.14423C6.64089 4.0074 5.87416 6.34481 5.75214 8.80769H2.30531C2.4499 7.25603 3.06599 5.78581 4.07078 4.5946C5.07556 3.4034 6.4209 2.54831 7.92598 2.14423ZM2.30531 10.1923H5.75214C5.87416 12.6552 6.64089 14.9926 7.92598 16.8558C6.4209 16.4517 5.07556 15.5966 4.07078 14.4054C3.06599 13.2142 2.4499 11.744 2.30531 10.1923ZM11.8514 16.8558C13.1365 14.99 13.9032 12.6526 14.0252 10.1923H17.472C17.3274 11.744 16.7114 13.2142 15.7066 14.4054C14.7018 15.5966 13.3565 16.4517 11.8514 16.8558Z" fill="#F5F6EF"/>
</svg>
