<svg width="1127" height="950" viewBox="0 0 1127 950" fill="none" xmlns="http://www.w3.org/2000/svg">
<path d="M1052.98 849.37L0 949.33L57.76 601.85L1110.74 501.89L1052.98 849.37Z" fill="#00AF38"/>
<path d="M266.5 224.16L255.24 332.44C254.24 346.02 255.2 358.43 258.12 369.66C260.84 378.45 265.01 384.68 270.61 388.33C287.45 399.71 312.74 404.1 346.51 401.48C387.59 398.3 426.24 392.85 462.47 385.14L452.94 476.1C413.64 486.51 368.17 493.71 316.52 497.71C242.9 503.41 192.6 490.53 165.61 459.06C150.74 441.4 141.57 420.83 138.12 397.36C136.07 376.25 136.19 356.6 138.47 338.41L148.37 236.37L151.74 208.49C156.35 183.58 164.06 161.5 174.85 142.26C189.63 116.57 210.33 95.9399 236.96 80.3699C268.68 61.9599 309.95 50.7799 360.8 46.8499C411.23 42.9499 456.26 43.1399 495.87 47.4399L486.34 138.4C451.8 136.16 413.98 136.64 372.9 139.81C337.51 142.55 310.95 150.95 293.22 165C286.68 170.42 281.08 177.4 276.43 185.94C271.12 196.58 267.81 209.32 266.5 224.15V224.16Z" fill="#0075C8"/>
<path d="M914.81 178.89L905.24 277.22C904.59 284.64 903.32 294.76 901.45 307.59C895.83 335.44 888.16 357.93 878.44 375.04C862.52 402.05 842.2 422.25 817.46 435.61C784.08 453.75 742.99 464.7 694.18 468.47C620.56 474.17 570.29 461.7 543.37 431.04C527.59 412.22 518.64 391.83 516.54 369.9C514.71 351.63 514.95 330.95 517.26 307.85L526.74 208.3C527.08 202.14 528.35 192.22 530.57 178.54C535.4 151.16 542.87 128.7 552.97 111.13C568.13 85 588.66 64.79 614.56 50.51C648.75 32.32 690.04 21.35 738.45 17.6C815.04 13.31 865.32 25.99 889.31 55.64C904.61 73.69 913.37 94.29 915.58 117.44C917.37 135.31 917.11 155.79 914.81 178.88V178.89ZM786.27 286.42L795.84 188.09C796.93 170.42 796.5 156.95 794.55 147.68C788.81 121.12 767.03 109.3 729.2 112.23C695.03 114.87 672.21 126.67 660.74 147.6C652.14 163.41 647.12 180.57 645.7 199.09L636.22 298.64C635.13 316.32 635.56 329.79 637.51 339.05C643.22 365.21 664.98 376.82 702.81 373.89C736.98 371.25 759.79 359.46 771.27 338.52C779.84 322.31 784.83 304.94 786.26 286.42H786.27Z" fill="#0075C8"/>
<path d="M132.97 672.4L168.31 669.16L147.44 822.35L204.57 817.11L200.66 845.82L108.19 854.3L132.97 672.4Z" fill="#F7FCF7" stroke="#F7FCF7" stroke-miterlimit="10"/>
<path d="M248.83 661.77L284.17 658.53L263.3 811.72L320.43 806.48L316.52 835.19L224.05 843.67L248.83 661.77Z" fill="#F7FCF7" stroke="#F7FCF7" stroke-miterlimit="10"/>
<path d="M364.68 651.15L466.19 641.84L462.28 670.55L396.11 676.62L389.99 721.51L442.87 716.66L439.1 744.32L386.22 749.17L379.14 801.1L446.64 794.91L442.73 823.62L339.89 833.05L364.67 651.15H364.68Z" fill="#F7FCF7" stroke="#F7FCF7" stroke-miterlimit="10"/>
<path d="M572.18 807.63C562.75 811.33 543.66 816.69 527.98 818.13C482.27 822.32 465.35 804.03 475.23 731.48C484.12 666.24 502.91 636.17 553.93 631.49C569.08 630.1 586.26 631.1 594.87 633.41L586.49 660.21C574.55 659.24 565.43 658.79 555.06 659.74C529.28 662.1 518.35 671.1 510.56 728.25C502.99 783.84 510.62 791.38 537.72 788.9C547.82 787.97 559.56 784.58 570.74 781.49L572.16 807.65L572.18 807.63Z" fill="#F7FCF7" stroke="#F7FCF7" stroke-miterlimit="10"/>
<path d="M643.5 653.93L603.91 657.56L607.82 628.85L722.09 618.37L718.18 647.08L678.85 650.69L657.98 803.88L622.64 807.12L643.51 653.93H643.5Z" fill="#F7FCF7" stroke="#F7FCF7" stroke-miterlimit="10"/>
<path d="M802.23 607.94C852.72 603.31 862.09 630.8 853.13 696.56C844.17 762.32 825.48 791.61 775 796.24C724.78 800.85 715.03 774.16 723.99 708.4C732.95 642.64 752.01 612.54 802.23 607.93V607.94ZM817.79 699.8C824.33 651.78 821.17 634.55 797.52 636.72C774.14 638.86 765.87 657.15 759.33 705.17C752.79 753.19 756.32 769.62 779.71 767.47C803.36 765.3 811.25 747.83 817.79 699.81V699.8Z" fill="#F7FCF7" stroke="#F7FCF7" stroke-miterlimit="10"/>
<path d="M895.06 602.52L948.47 597.62C992.05 593.62 1007.1 606.42 1001.38 648.44C998.14 672.19 986.52 688.2 969.08 696.76C975.15 700.33 981.6 706.95 985.65 725.39L996.77 772.82L959.57 776.23L951.16 733.96C947.7 717.01 941.96 712.9 927.61 714.21L914.59 715.4L905.63 781.16L870.29 784.4L895.07 602.5V602.52H895.06ZM933.64 685.31C954.37 683.41 962.98 674.11 965.97 652.19C968.92 630.53 963.96 624.54 942.17 626.54L926.49 627.98L918.49 686.7L933.64 685.31Z" fill="#F7FCF7" stroke="#F7FCF7" stroke-miterlimit="10"/>
<path d="M1021.86 370.79L985.92 412.11L1035.21 407.85L1032.99 435.55L938.81 443.69L940.59 421.57L997.71 356.27C1002.07 351.22 1004.4 346.83 1004.7 343.11C1005.1 339.14 1004 336.43 1001.41 334.99C998.82 333.55 994.84 333.07 989.47 333.53C977.25 334.59 964.67 337.77 951.71 343.07L954.18 316.09C960.44 313.09 967.81 310.79 976.29 309.19C984.99 307.33 991.42 306.22 995.57 305.86C1000.45 305.44 1005 305.35 1009.21 305.6C1013.41 305.85 1017.54 306.57 1021.58 307.76C1025.62 308.95 1029.03 310.65 1031.81 312.87C1034.59 315.1 1036.7 318.17 1038.15 322.11C1039.6 326.05 1040.06 330.69 1039.54 336.02C1038.82 343.35 1037.17 349.21 1034.6 353.61C1032.14 357.89 1027.89 363.6 1021.87 370.77V370.79H1021.86Z" fill="#0075C8" stroke="#0075C8" stroke-width="4" stroke-miterlimit="10"/>
<path d="M1121.64 0.969971C1121.44 1.04997 1121.21 1.16996 1121.01 1.23996C1119.16 4.09996 1117.68 5.98996 1117.68 5.98996C1116.2 11.36 1114.47 16.71 1112.56 22.06C1112.3 22.72 1112.04 23.39 1111.79 24.09C1107.59 35.56 1102.44 46.96 1096.63 58.15C1072.03 126.85 1017.76 186.3 1001.33 203.27C1026.4 203.8 1073.17 200.85 1099.38 174.35C1144.39 128.84 1118.25 44.73 1121.63 0.969971H1121.64Z" fill="#00AF38"/>
<path d="M1121.02 1.23999C1081.13 19.94 996.4 27.6 967.67 83.94C945.14 128.04 967.16 174.31 978.52 193.3C1052.55 133.86 1093.05 64.1 1096.77 57.55C1096.91 57.34 1096.98 57.18 1097.04 57.1L1097.07 57.06C1103.67 43.99 1108.31 32.9 1111.81 24.09C1112.06 23.39 1112.32 22.73 1112.58 22.06C1116.73 11.4 1119.04 4.30999 1121.03 1.23999H1121.02Z" fill="#00AF38"/>
</svg>
