<svg width="17" height="15" viewBox="0 0 17 15" fill="none" xmlns="http://www.w3.org/2000/svg">
<path d="M15.0665 0.5H2.2665C1.3865 0.5 0.674504 1.2875 0.674504 2.25L0.666504 12.75C0.666504 13.7125 1.3865 14.5 2.2665 14.5H15.0665C15.9465 14.5 16.6665 13.7125 16.6665 12.75V2.25C16.6665 1.2875 15.9465 0.5 15.0665 0.5ZM15.0665 11.75C15.0665 12.3023 14.6188 12.75 14.0665 12.75H3.2665C2.71422 12.75 2.2665 12.3023 2.2665 11.75V4.56847C2.2665 4.32728 2.53669 4.1847 2.73581 4.32081L8.10217 7.98922C8.44244 8.22183 8.89057 8.22183 9.23084 7.98922L14.2843 4.53469C14.6162 4.30783 15.0665 4.54547 15.0665 4.94746V11.75ZM9.23084 6.23922C8.89057 6.47183 8.44244 6.47183 8.10217 6.23922L3.06766 2.79766C2.8241 2.63117 2.94194 2.25 3.23696 2.25H14.096C14.3911 2.25 14.5089 2.63117 14.2654 2.79766L9.23084 6.23922Z" fill="#F5F6EF"/>
</svg>
