<svg width="16" height="15" viewBox="0 0 16 15" fill="none" xmlns="http://www.w3.org/2000/svg">
<path d="M14.6985 13.6481C13.6744 11.807 12.0962 10.4867 10.2544 9.86089C11.1654 9.2969 11.8732 8.43752 12.2691 7.41471C12.665 6.39191 12.7271 5.26223 12.4459 4.19918C12.1646 3.13612 11.5556 2.19846 10.7123 1.53019C9.869 0.861924 8.83807 0.5 7.77783 0.5C6.71759 0.5 5.68667 0.861924 4.84337 1.53019C4.00008 2.19846 3.39104 3.13612 3.1098 4.19918C2.82855 5.26223 2.89064 6.39191 3.28654 7.41471C3.68244 8.43752 4.39025 9.2969 5.30128 9.86089C3.4595 10.486 1.88131 11.8063 0.857203 13.6481C0.819647 13.7118 0.794737 13.7827 0.783941 13.8565C0.773146 13.9304 0.776684 14.0057 0.794347 14.0781C0.812011 14.1505 0.843441 14.2185 0.886784 14.2781C0.930128 14.3377 0.984506 14.3876 1.04671 14.425C1.10891 14.4624 1.17769 14.4864 1.24896 14.4957C1.32024 14.5049 1.39259 14.4993 1.46173 14.479C1.53087 14.4587 1.59541 14.4243 1.65153 14.3777C1.70766 14.331 1.75424 14.2732 1.78852 14.2075C3.05537 11.9307 5.29456 10.5713 7.77783 10.5713C10.2611 10.5713 12.5003 11.9307 13.7671 14.2075C13.8014 14.2732 13.848 14.331 13.9041 14.3777C13.9603 14.4243 14.0248 14.4587 14.0939 14.479C14.1631 14.4993 14.2354 14.5049 14.3067 14.4957C14.378 14.4864 14.4468 14.4624 14.509 14.425C14.5712 14.3876 14.6255 14.3377 14.6689 14.2781C14.7122 14.2185 14.7437 14.1505 14.7613 14.0781C14.779 14.0057 14.7825 13.9304 14.7717 13.8565C14.7609 13.7827 14.736 13.7118 14.6985 13.6481ZM4.01224 5.53662C4.01224 4.76213 4.23308 4.00504 4.64685 3.36107C5.06062 2.7171 5.64873 2.21519 6.3368 1.91881C7.02487 1.62242 7.78201 1.54488 8.51246 1.69597C9.24292 1.84707 9.91388 2.22002 10.4405 2.76767C10.9671 3.31532 11.3258 4.01306 11.4711 4.77267C11.6164 5.53228 11.5418 6.31964 11.2568 7.03517C10.9718 7.75071 10.4891 8.36229 9.86989 8.79257C9.25064 9.22286 8.5226 9.45252 7.77783 9.45252C6.77946 9.45141 5.82229 9.03849 5.11633 8.30436C4.41038 7.57022 4.0133 6.57484 4.01224 5.53662Z" fill="#F5F6EF" stroke="#F5F6EF" stroke-width="0.5"/>
</svg>
