<svg width="321" height="235" viewBox="0 0 321 235" fill="none" xmlns="http://www.w3.org/2000/svg">
<g opacity="1" clip-path="url(#clip0_2002_7900)">
<g opacity="1">
<path d="M304.846 9.53192C302.647 11.6481 300.84 14.1369 299.508 16.8831C297.843 20.3426 297.221 23.6981 296.532 23.6058C295.989 23.5324 295.825 21.3705 295.87 21.0968C296.433 17.6625 296.219 13.0569 304.846 9.53192Z" fill="#002530"/>
<path d="M304.214 8.89765C304.214 8.89765 294.394 10.1558 289.012 4.76568C288.733 4.48572 286.875 2.67451 287.143 2.27599C287.687 1.46708 291.013 2.95805 296.445 4.99265C299.986 6.31923 302.911 7.31183 304.848 7.94815L304.214 8.89765Z" fill="#002530"/>
<path d="M320.301 1.04326C321.199 2.55322 311.743 8.00369 304.848 9.53276C304.848 9.53276 302.826 8.87297 304.143 7.9979C305.46 7.12283 311.54 6.5681 314.792 4.81471C318.984 2.55264 319.939 0.434774 320.301 1.04326Z" fill="#002530"/>
<path d="M290.795 17.4335C290.617 15.8001 290.998 14.1548 291.876 12.7658C292.754 11.3769 294.076 10.3264 295.628 9.78578C298.355 8.75034 301.228 8.14684 304.141 7.99707L304.846 9.53192C304.846 9.53192 298.886 14.6882 295.326 16.3158C291.765 17.9435 290.795 17.4335 290.795 17.4335Z" fill="#002530"/>
<path d="M226.891 27.9747C223.854 28.2888 220.896 29.138 218.155 30.483C214.712 32.1848 212.156 34.4475 211.67 33.9506C211.286 33.5578 212.489 31.7529 212.692 31.5646C215.252 29.2042 217.918 25.4412 226.891 27.9747Z" fill="#002530"/>
<path d="M226.782 27.085C226.782 27.085 218.266 22.0304 217.342 14.4669C217.295 14.0744 216.945 11.5022 217.402 11.3531C218.329 11.0507 220.032 14.2736 223.063 19.223C225.037 22.4493 226.732 25.0328 227.867 26.7273L226.782 27.085Z" fill="#002530"/>
<path d="M244.302 30.7994C244.08 32.5425 233.269 31.0165 226.891 27.9763C226.891 27.9763 225.704 26.2114 227.281 26.3322C228.857 26.4531 233.993 29.7602 237.636 30.3801C242.334 31.1779 244.391 30.0967 244.302 30.7994Z" fill="#002530"/>
<path d="M210.947 25.5517C211.813 24.1545 213.127 23.092 214.674 22.5374C216.221 21.9829 217.91 21.969 219.466 22.4982C222.254 23.3615 224.891 24.6545 227.28 26.3306L226.891 27.9747C226.891 27.9747 219.017 28.3698 215.207 27.4604C211.398 26.551 210.947 25.5517 210.947 25.5517Z" fill="#002530"/>
<path d="M210.816 79.0543C208.135 83.1652 206.203 87.7186 205.11 92.5033C203.759 98.5194 204 104 202.889 104.104C202.01 104.187 200.973 100.859 200.944 100.415C200.583 94.8313 198.579 87.7005 210.816 79.0543Z" fill="#002530"/>
<path d="M209.599 78.29C209.599 78.29 194.673 83.8121 184.296 77.3186C183.758 76.9813 180.192 74.8203 180.468 74.0958C181.025 72.634 186.772 73.7631 196.017 74.9837C202.042 75.7803 206.982 76.2772 210.246 76.5728C210.031 77.1455 209.815 77.7179 209.599 78.29Z" fill="#002530"/>
<path d="M231.95 60.1681C233.906 62.2131 221.064 74.1665 210.816 79.0543C210.816 79.0543 207.412 78.7517 209.156 76.9049C210.901 75.0581 220.228 71.9903 224.686 68.0678C230.433 63.0087 231.163 59.3459 231.95 60.1681Z" fill="#002530"/>
<path d="M191.669 96.5125C190.266 92.8572 190.693 86.8525 196.467 82.79C200.365 80.18 204.646 78.1944 209.156 76.9049L210.816 79.0543C210.816 79.0543 203.348 89.2857 198.364 93.1239C193.381 96.9621 191.669 96.5125 191.669 96.5125Z" fill="#002530"/>
<path d="M166.66 60.2842C162.283 62.5038 158.333 65.4811 154.994 69.0783C150.816 73.6128 148.284 78.4791 147.27 78.0143C146.468 77.6463 147.233 74.2461 147.43 73.8464C149.909 68.8306 151.739 61.6533 166.66 60.2842Z" fill="#002530"/>
<path d="M165.988 59.0138C165.988 59.0138 150.3 56.3327 144.561 45.521C144.263 44.9596 142.255 41.305 142.857 40.8157C144.07 39.8281 148.483 43.6798 155.878 49.3591C160.699 53.0618 164.728 55.962 167.407 57.85C166.934 58.2382 166.461 58.6261 165.988 59.0138Z" fill="#002530"/>
<path d="M194.406 54.4952C195.077 57.244 177.979 61.175 166.66 60.2842C166.66 60.2842 163.863 58.3198 166.297 57.5927C168.732 56.8657 178.343 58.8725 184.165 57.7043C191.671 56.1966 194.135 53.3897 194.406 54.4952Z" fill="#002530"/>
<path d="M141.349 65.8298C141.961 61.9624 145.334 56.976 152.365 56.3445C157.046 56.0331 161.746 56.4543 166.297 57.5927L166.66 60.2842C166.66 60.2842 155.076 65.4106 148.841 66.2427C142.606 67.0748 141.349 65.8298 141.349 65.8298Z" fill="#002530"/>
<path d="M135.545 147.673C131.25 150.045 127.408 153.16 124.199 156.872C120.184 161.55 117.826 166.502 116.797 166.074C115.982 165.734 116.626 162.31 116.81 161.903C119.109 156.804 120.684 149.568 135.545 147.673Z" fill="#002530"/>
<path d="M139.416 128.12C139.416 128.12 123.646 125.995 117.529 115.395C117.212 114.845 115.076 111.264 115.66 110.754C116.837 109.724 121.383 113.417 128.973 118.83C133.92 122.36 138.049 125.115 140.793 126.907C140.334 127.312 139.875 127.716 139.416 128.12Z" fill="#002530"/>
<path d="M190.667 120.045C191.435 122.768 174.49 127.299 163.149 126.809C163.149 126.809 160.284 124.946 162.69 124.133C165.097 123.321 174.772 124.986 180.548 123.613C187.995 121.841 190.358 118.95 190.667 120.045Z" fill="#002530"/>
<path d="M109.059 152.812C109.534 148.926 112.728 143.824 119.731 142.945C124.397 142.468 129.109 142.723 133.696 143.7L134.155 146.375C134.155 146.375 122.761 151.908 116.56 152.96C110.359 154.011 109.059 152.812 109.059 152.812Z" fill="#002530"/>
<path d="M34.8151 210.536C29.169 213.654 24.1197 217.748 19.9014 222.627C14.6233 228.779 11.5256 235.286 10.173 234.718C9.1029 234.272 9.9485 229.771 10.1895 229.236C13.211 222.539 15.2859 213.023 34.8151 210.536Z" fill="#002530"/>
<path d="M39.8996 184.832C39.8996 184.832 19.1754 182.042 11.1343 168.109C10.7173 167.386 7.91357 162.676 8.67892 162.008C10.2219 160.658 16.2 165.509 26.1768 172.625C32.6791 177.264 38.1065 180.886 41.7123 183.241C41.1083 183.772 40.5041 184.303 39.8996 184.832Z" fill="#002530"/>
<path d="M107.269 174.221C108.281 177.797 86.0053 183.756 71.0972 183.113C71.0972 183.113 67.3315 180.663 70.4941 179.598C73.6566 178.533 86.3752 180.717 93.968 178.912C103.757 176.583 106.862 172.782 107.269 174.221Z" fill="#002530"/>
<path d="M0 217.291C0.624342 212.184 4.82158 205.477 14.0303 204.325C20.1629 203.698 26.3556 204.032 32.385 205.315L32.9882 208.83C32.9882 208.83 18.0099 216.103 9.85979 217.486C1.70968 218.868 0 217.291 0 217.291Z" fill="#002530"/>
</g>
</g>
<defs>
<clipPath id="clip0_2002_7900">
<rect width="320.361" height="233.816" fill="white" transform="translate(0 0.9375)"/>
</clipPath>
</defs>
</svg>
